Coordinates
version=1
nRows=4
nColumns=63
inDegrees=yes

Units are S.I. units (second, meters, Newtons, ...)
If the header above contains a line with 'inDegrees', this indicates whether rotational values are in degrees (yes) or radians (no).

endheader
time	pelvis_tilt	pelvis_list	pelvis_rotation	pelvis_tx	pelvis_ty	pelvis_tz	hip_flexion_r	hip_adduction_r	hip_rotation_r	knee_angle_r	knee_angle_r_beta	ankle_angle_r	subtalar_angle_r	mtp_angle_r	hip_flexion_l	hip_adduction_l	hip_rotation_l	knee_angle_l	knee_angle_l_beta	ankle_angle_l	subtalar_angle_l	mtp_angle_l	L5_S1_Flex_Ext	L5_S1_Lat_Bending	L5_S1_axial_rotation	L4_L5_Flex_Ext	L4_L5_Lat_Bending	L4_L5_axial_rotation	L3_L4_Flex_Ext	L3_L4_Lat_Bending	L3_L4_axial_rotation	L2_L3_Flex_Ext	L2_L3_Lat_Bending	L2_L3_axial_rotation	L1_L2_Flex_Ext	L1_L2_Lat_Bending	L1_L2_axial_rotation	L1_T12_Flex_Ext	L1_T12_Lat_Bending	L1_T12_axial_rotation	Abs_r3	Abs_r2	Abs_r1	Abs_t1	Abs_t2	neck_flexion	neck_bending	neck_rotation	arm_flex_r	arm_add_r	arm_rot_r	elbow_flex_r	pro_sup_r	wrist_flex_r	wrist_dev_r	arm_flex_l	arm_add_l	arm_rot_l	elbow_flex_l	pro_sup_l	wrist_flex_l	wrist_dev_l
     15.51063830	      3.87455575	    -11.36245557	    113.22346360	      0.19985604	      0.70308858	      0.96794582	     19.18487234	     -2.06051372	    -10.22571642	     15.02089227	      0.26216403	     18.36656620	    -10.31919496	      0.00000000	     24.22116018	      0.71461929	      7.13347848	     15.36928492	      0.26824463	     23.51345975	      4.82502475	      0.00000000	     -0.06865568	     -0.91130349	      0.48039221	     -0.12750046	     -1.21203364	      0.51041672	     -0.11279442	     -2.21574330	      0.51041672	     -0.07846658	     -2.21574330	      0.42034318	     -0.06375366	     -1.85833008	      0.39031867	     -0.03922985	     -1.41160911	      0.36029416	     -0.49040065	    -10.30884734	      2.67179735	      0.00000000	      0.00000000	    -23.66443187	      8.33918655	     -7.89808538	      3.34224794	    -11.23994596	    -19.61438308	    146.58792751	     69.87057069	    -13.67446638	     14.14109973	    -12.45961459	    -35.46342887	    -37.88606825	    148.44018146	     41.33587952	    -11.23366612	    -12.11959460
     15.53191489	      3.13297840	    -11.25404930	    111.92670997	      0.19979803	      0.70410215	      0.96466900	     18.86450345	     -2.36646722	     -9.14883414	     15.40278083	      0.26882924	     18.38881614	    -10.40853176	      0.00000000	     23.16689643	      0.88182396	      6.13652524	     14.72071664	      0.25692497	     23.36317259	      4.65294112	      0.00000000	     -0.05425483	     -0.97010681	      0.75584110	     -0.10075664	     -1.29024206	      0.80308117	     -0.08913526	     -2.35871770	      0.80308117	     -0.06200784	     -2.35871770	      0.66136096	     -0.05038103	     -1.97824181	      0.61412089	     -0.03100121	     -1.50269545	      0.56688082	     -0.38753680	    -10.97404226	      4.20376143	      0.00000000	      0.00000000	    -23.18863283	      9.28120016	     -7.87123932	      2.34337992	    -10.98046498	    -20.22744773	    146.83894633	     68.59903576	    -13.74255494	     13.51140090	    -12.18710498	    -36.12723716	    -36.56835616	    148.01596604	     43.51953905	    -12.65337160	    -10.53373151
     15.55319149	      2.69992489	    -11.06343353	    110.70320934	      0.19922993	      0.70500583	      0.96172427	     18.53839812	     -2.37858188	     -8.00086351	     15.64010566	      0.27297134	     18.30855543	    -10.81874675	      0.00000000	     22.23119637	      0.81239110	      5.18681116	     14.16375858	      0.24720422	     23.35724233	      4.61574822	      0.00000000	     -0.02866045	     -0.97704939	      1.05311059	     -0.05322531	     -1.29947569	      1.11893001	     -0.04708625	     -2.37559789	      1.11893001	     -0.03275602	     -2.37559789	      0.92147177	     -0.02661409	     -1.99239912	      0.85565236	     -0.01637658	     -1.51344950	      0.78983295	     -0.20471870	    -11.05257811	      5.85708519	      0.00000000	      0.00000000	    -22.55971126	      9.91665496	     -7.58186187	      1.23129529	    -11.18842737	    -21.05500453	    147.06064869	     65.70069752	    -13.94920774	     12.54236762	    -11.12076500	    -36.45170444	    -34.26912100	    147.28381064	     48.72277160	    -15.44589538	     -8.56266068
     15.57446809	      2.11656872	    -10.85538248	    109.03667709	      0.19893787	      0.70620630	      0.95857663	     18.18425921	     -2.49607717	     -6.91078535	     15.83957124	      0.27645267	     18.51650663	    -10.37809493	      0.00000000	     21.14065574	      0.82433332	      4.24381231	     13.49484262	      0.23552944	     23.12775792	      3.93424383	      0.00000000	      0.00054381	     -0.98204242	      1.34010708	      0.00100991	     -1.30611642	      1.42386378	      0.00089342	     -2.38773795	      1.42386378	      0.00062152	     -2.38773795	      1.17259370	      0.00050498	     -2.00258091	      1.08883701	      0.00031073	     -1.52118371	      1.00508031	      0.00388437	    -11.10906029	      7.45327357	      0.00000000	      0.00000000	    -22.05404944	     10.15235087	     -6.03721264	      0.46505487	    -11.45647806	    -21.18088118	    147.01396179	     63.06210280	    -14.85752327	     11.34486035	    -10.05020285	    -36.30265041	    -32.27368119	    146.28639358	     52.36119135	    -16.70059111	     -6.69687268
